<?xml version="1.0" encoding="utf-8"?>
<!-- Generator: Adobe Illustrator 25.2.1, SVG Export Plug-In . SVG Version: 6.00 Build 0)  -->
<svg version="1.1" xmlns="http://www.w3.org/2000/svg" xmlns:xlink="http://www.w3.org/1999/xlink" x="0px" y="0px"
	 viewBox="0 0 1300 1000" style="enable-background:new 0 0 1300 1000;" xml:space="preserve">
<style type="text/css">
	.st0{fill:#CCC0B1;}
	.st1{fill:#8AACCE;}
	.st2{fill:#98BDE3;}
	.st3{fill:#C6C6C6;}
	.st4{fill:#A8A8A8;}
	.st5{fill:#FFFFFF;}
	.st6{opacity:0.19;}
	.st7{fill:#FF9100;}
	.st8{fill:#FFB000;}
	.st9{fill:none;stroke:#FFFFFF;stroke-width:3.095;stroke-linecap:round;stroke-linejoin:round;stroke-miterlimit:10;}
	.st10{fill-rule:evenodd;clip-rule:evenodd;fill:#EB966C;}
	.st11{fill:#EB966C;}
	.st12{fill-rule:evenodd;clip-rule:evenodd;fill:#FFFFFF;}
	.st13{fill:none;stroke:#B84337;stroke-width:2.8673;stroke-linecap:round;stroke-linejoin:round;stroke-miterlimit:10;}
	.st14{fill:#5267EB;}
	.st15{fill:#918B85;}
	.st16{fill:#424242;}
	.st17{fill:#C4BCB3;}
	.st18{fill:none;stroke:#CFC6BD;stroke-width:4.0707;stroke-linecap:round;stroke-linejoin:round;stroke-miterlimit:10;}
	.st19{fill:none;stroke:#2130A7;stroke-width:2.1315;stroke-linecap:round;stroke-linejoin:round;stroke-miterlimit:10;}
	.st20{opacity:0.29;}
	.st21{fill:#EAEAEA;}
	.st22{fill:#F0E6DB;}
</style>
<g id="background">
</g>
<g id="image">
	<g>
		<g>
			<path d="M609.6,273.5L609.6,273.5c-4.8-7.3-1.4-15.2,5.4-12.6l0,0c7.7,3,14-1.7,13.9-10.4l0-4.5c0-8.7-6.3-18.1-14-21.1l0,0
				c-6.8-2.6-10.3-13.2-5.5-16.8l0,0c5.4-4,5.4-14-0.1-22.2l-2.8-4.2c-5.5-8.2-14.3-11.6-19.8-7.6l0,0c-4.8,3.6-13.1-3.4-13.1-11.1
				v0c0-8.7-6.3-18.1-14-21.1l-4-1.5c-7.7-3-14,1.7-13.9,10.4l0,0c0,7.7-8.2,8.3-13.1,1.1h0c-5.5-8.2-14.3-11.6-19.8-7.6l-2.8,2.1
				c-5.4,4-5.4,14,0.1,22.2c4.8,7.3,1.4,15.2-5.4,12.6v0c-7.7-3-14,1.7-13.9,10.4l0,4.5c0,8.7,6.3,18.1,14,21.1l0,0
				c6.8,2.6,10.3,13.2,5.5,16.8l0,0c-5.4,4-5.4,14,0.1,22.2l2.8,4.2c5.5,8.2,14.3,11.6,19.8,7.6c4.8-3.6,13.1,3.4,13.1,11.1
				c0,8.7,6.3,18.1,14,21.1l4,1.5c7.7,3,14-1.7,13.9-10.4v0c0-7.7,8.2-8.3,13.1-1.1l0,0c5.5,8.2,14.3,11.6,19.8,7.6l2.8-2.1
				C615.1,291.7,615,281.8,609.6,273.5z M533.4,239.3c-13.6-20.4-13.7-45.1-0.2-55.2c13.5-10,35.5-1.6,49.1,18.8
				c13.6,20.4,13.7,45.1,0.2,55.2C569,268.1,547,259.7,533.4,239.3z"/>
		</g>
	</g>
	<g>
		<path class="st0" d="M1063.9,720.4L602.3,453.9c-5.3-3.1-14.8-2.7-20.9,0.9L311.1,610.5c-6.2,3.6-6.8,9-1.5,12.1l410.5,237l1.3,45
			l62.7-13.7l0,0c2.9-0.4,5.7-1.3,8.1-2.7l270.3-155.8C1068.6,728.9,1069.2,723.5,1063.9,720.4z"/>
		<polygon class="st1" points="1015.9,717.5 1004.5,724.8 999.7,708.6 1017.1,708.6 		"/>
		<polygon class="st2" points="614.3,134.9 625.7,127.7 645.3,146.1 620.9,149.9 		"/>
		<path class="st3" d="M1000.4,717.7L546.5,455.6c-10-5.8-15-21.7-11-35.4L615.6,142c4-13.7,15.4-20.2,25.4-14.4L1096.2,392
			c10,5.8,13,16.4,9,30.1l-79.4,281.2C1021.9,717,1010.4,723.5,1000.4,717.7z"/>
		<path class="st4" d="M988.7,725.1L534.8,463.1c-10-5.8-15-21.7-11-35.4l80.1-278.2c4-13.7,15.4-20.2,25.4-14.4l458.2,265
			c10,5.8,12.1,13.5,8.1,27.2l-81.5,283.4C1010.2,724.4,998.7,730.9,988.7,725.1z"/>
		<path d="M981.5,715.1L546,463.6c-9.6-5.6-14.4-20.9-10.6-34l76.9-266.9c3.8-13.2,14.8-19.4,24.4-13.8l439.6,254.3
			c9.6,5.6,11.6,13,7.8,26.1l-78.2,271.9C1002.1,714.4,991.1,720.6,981.5,715.1z"/>
		<path class="st3" d="M996.5,739.5v-14.8l-66.6,38.8l-3.8-8.8L482.4,498.6c-5.3-3.1-16-2.7-22.1,0.9L268.1,609.7v-3.1l-29.2,14.2
			l-4.1-1.7l0.6,13.5c0.4,2.9,1.6,4.1,3.4,5.2l461.6,267.2c5.3,3.1,14.8,3,20.9-0.5l268-153.3C996.5,747.6,996.5,739.5,996.5,739.5z
			"/>
		<path class="st4" d="M996.5,739.5v-14.8l-66.6,38.8l-3.8-8.8L708.4,629.1l-8,276c2.7,1.5,6.4,2.3,10.2,2.2c3.8-0.1,7.7-1,10.8-2.8
			l268-153.3C996.5,747.6,996.5,739.5,996.5,739.5z"/>
		<path class="st5" d="M992.9,723.8L531.2,457.3c-5.3-3.1-14.8-2.7-20.9,0.9L240,613.9c-6.2,3.6-6.8,9-1.5,12.1l461.6,266.5
			c5.3,3.1,14.8,2.7,20.9-0.9l270.3-155.8C997.5,732.4,998.2,726.9,992.9,723.8z"/>
		<g>
			<g>
				<path class="st3" d="M509.9,532.4c-0.7,0.4-2,0.2-3-0.4l-28-16.2c-1-0.6-1.3-1.4-0.6-1.8l18.6-10.7c0.7-0.4,2-0.2,3,0.4l28,16.2
					c1,0.6,1.3,1.4,0.6,1.8L509.9,532.4z"/>
			</g>
			<g>
				<path class="st3" d="M542.4,580.7c-0.7,0.4-2,0.2-3.1-0.4l-28-16.2c-1-0.6-1.3-1.4-0.6-1.8l18.6-10.7c0.7-0.4,2-0.2,3,0.4
					l28,16.2c1,0.6,1.3,1.4,0.6,1.8L542.4,580.7z"/>
			</g>
			<g>
				<path class="st3" d="M526,600.7c-0.7,0.4-2,0.2-3-0.4l-28-16.2c-1-0.6-1.3-1.4-0.6-1.8l18.6-10.7c0.7-0.4,2-0.2,3,0.4l28,16.2
					c1,0.6,1.3,1.4,0.6,1.8L526,600.7z"/>
			</g>
			<g>
				<path class="st3" d="M481.5,604.6c-0.7,0.4-2,0.2-3-0.4l-28-16.2c-1-0.6-1.3-1.4-0.6-1.8l18.6-10.7c0.7-0.4,2-0.2,3,0.3l28,16.2
					c1,0.6,1.3,1.4,0.6,1.8L481.5,604.6z"/>
			</g>
			<g>
				<path class="st3" d="M404.4,593.3c-0.7,0.4-2,0.2-3-0.4l-28-16.2c-1-0.6-1.3-1.4-0.6-1.8l21.8-12.6c0.7-0.4,2-0.2,3,0.4l28,16.2
					c1,0.6,1.3,1.4,0.6,1.8L404.4,593.3z"/>
			</g>
			<g>
				<path class="st3" d="M452.7,621.2c-0.7,0.4-2.3,0.1-3.6-0.7l-36.7-21.2c-1.3-0.8-1.9-1.7-1.2-2.1l21.8-12.6
					c0.7-0.4,2.3-0.1,3.6,0.7l36.7,21.2c1.3,0.8,1.8,1.7,1.2,2.1L452.7,621.2z"/>
			</g>
			<g>
				<path class="st3" d="M693.9,760.6c-0.6,0.3-1.8,0.1-2.8-0.5l-28-16.2c-1-0.6-1.4-1.3-0.8-1.7l8.1-4.7c0.6-0.3,1.8-0.1,2.9,0.5
					l28,16.2c1,0.6,1.4,1.3,0.8,1.6L693.9,760.6z"/>
			</g>
			<g>
				<path class="st3" d="M731.4,782.8c-0.6,0.3-1.8,0.1-2.8-0.5l-28-16.2c-1-0.6-1.4-1.3-0.8-1.7l8.1-4.7c0.6-0.3,1.8-0.1,2.9,0.5
					l28,16.2c1,0.6,1.4,1.3,0.8,1.6L731.4,782.8z"/>
			</g>
			<g>
				<path class="st3" d="M771.1,805.2c-0.5,0.3-1.8,0.1-2.8-0.5l-28-16.2c-1-0.6-1.4-1.3-0.9-1.6l7.8-4.5c0.5-0.3,1.8-0.1,2.8,0.5
					l28,16.2c1,0.6,1.4,1.3,0.9,1.6L771.1,805.2z"/>
			</g>
			<g>
				<path class="st3" d="M746.7,774.2c-0.5,0.3-1.8,0.1-2.8-0.5l-28-16.2c-1-0.6-1.4-1.3-0.9-1.6l7.8-4.5c0.5-0.3,1.8-0.1,2.8,0.5
					l28,16.2c1,0.6,1.4,1.3,0.9,1.6L746.7,774.2z"/>
			</g>
			<g>
				<path class="st3" d="M645.5,732.4c-0.7,0.4-2,0.2-3.1-0.4L460.1,626.8c-1-0.6-1.3-1.4-0.6-1.8l21.8-12.6c0.7-0.4,2.1-0.2,3,0.4
					l182.4,105.2c1,0.6,1.3,1.4,0.6,1.8L645.5,732.4z"/>
			</g>
			<g>
				<path class="st3" d="M447.7,614.3c0,0-0.2,0-0.3-0.1L426,601.8c-0.1-0.1-0.2-0.1-0.1-0.2l1.4-0.8c0,0,0.2,0,0.3,0.1l21.4,12.4
					c0.1,0.1,0.2,0.1,0.1,0.2L447.7,614.3z"/>
			</g>
			<g>
				<path class="st3" d="M392.8,580.2c0,0-0.1,0-0.2,0l-9.1-5.2c0,0-0.1-0.1,0-0.1l1.4-0.8c0,0,0.1,0,0.2,0l9.1,5.2
					c0.1,0,0.1,0.1,0,0.1L392.8,580.2z"/>
			</g>
			<g>
				<path class="st3" d="M519.9,626.7c-0.7,0.4-2,0.2-3-0.4l-28-16.2c-1-0.6-1.3-1.4-0.6-1.8l18.6-10.7c0.7-0.4,2.1-0.2,3.1,0.4
					l28,16.2c1,0.6,1.3,1.4,0.6,1.8L519.9,626.7z"/>
			</g>
			<g>
				<path class="st3" d="M558.5,649c-0.7,0.4-2,0.2-3-0.4l-28-16.2c-1-0.6-1.3-1.4-0.6-1.8l18.6-10.7c0.7-0.4,2.1-0.2,3.1,0.4
					l28,16.2c1,0.6,1.3,1.4,0.6,1.8L558.5,649z"/>
			</g>
			<g>
				<path class="st3" d="M597.1,671.3c-0.7,0.4-2,0.2-3-0.4l-28-16.2c-1-0.6-1.3-1.4-0.6-1.8l18.6-10.7c0.7-0.4,2-0.2,3,0.3l28,16.2
					c1,0.6,1.3,1.4,0.6,1.8L597.1,671.3z"/>
			</g>
			<g>
				<path class="st3" d="M635.7,693.5c-0.7,0.4-2,0.2-3-0.4l-28-16.2c-1-0.6-1.3-1.4-0.6-1.8l18.6-10.7c0.7-0.4,2-0.2,3.1,0.4
					l28,16.2c1,0.6,1.3,1.4,0.6,1.8L635.7,693.5z"/>
			</g>
			<g>
				<path class="st3" d="M674.3,715.8c-0.7,0.4-2,0.2-3.1-0.4l-28-16.2c-1-0.6-1.3-1.4-0.6-1.8l18.6-10.7c0.7-0.4,2-0.2,3,0.3
					l28,16.2c1,0.6,1.3,1.4,0.6,1.8L674.3,715.8z"/>
			</g>
			<g>
				<path class="st3" d="M712.9,738.1c-0.7,0.4-2,0.2-3-0.4l-28-16.2c-1-0.6-1.3-1.4-0.6-1.8l18.6-10.7c0.7-0.4,2-0.2,3.1,0.4
					l28,16.2c1,0.6,1.3,1.4,0.6,1.8L712.9,738.1z"/>
			</g>
			<g>
				<path class="st3" d="M799.8,788.2c-0.7,0.4-2,0.2-3-0.4l-76.4-44.1c-1-0.6-1.3-1.4-0.6-1.8l18.6-10.7c0.7-0.4,2-0.2,3,0.4
					l76.4,44.1c1,0.6,1.3,1.4,0.6,1.8L799.8,788.2z"/>
			</g>
			<g>
				<path class="st3" d="M564.4,622.8c-0.7,0.4-2,0.2-3-0.4l-28-16.2c-1-0.6-1.3-1.4-0.6-1.8l18.6-10.7c0.7-0.4,2-0.2,3,0.4l28,16.2
					c1,0.6,1.3,1.4,0.6,1.7L564.4,622.8z"/>
			</g>
			<g>
				<path class="st3" d="M603,645.1c-0.7,0.4-2,0.2-3-0.4l-28-16.2c-1-0.6-1.3-1.4-0.6-1.7l18.6-10.7c0.7-0.4,2-0.2,3,0.4l28,16.2
					c1,0.6,1.3,1.4,0.6,1.7L603,645.1z"/>
			</g>
			<g>
				<path class="st3" d="M641.6,667.4c-0.7,0.4-2,0.2-3-0.4l-28-16.2c-1-0.6-1.3-1.4-0.6-1.8l18.6-10.7c0.7-0.4,2.1-0.2,3,0.4
					l28,16.2c1,0.6,1.3,1.4,0.6,1.8L641.6,667.4z"/>
			</g>
			<g>
				<path class="st3" d="M680.2,689.7c-0.7,0.4-2,0.2-3-0.4l-28-16.2c-1-0.6-1.3-1.4-0.6-1.8l18.6-10.7c0.7-0.4,2-0.2,3,0.4l28,16.2
					c1,0.6,1.3,1.4,0.6,1.8L680.2,689.7z"/>
			</g>
			<g>
				<path class="st3" d="M718.8,711.9c-0.7,0.4-2,0.2-3-0.4l-28-16.2c-1-0.6-1.3-1.4-0.6-1.8l18.6-10.7c0.7-0.4,2-0.2,3,0.4l28,16.2
					c1,0.6,1.3,1.4,0.6,1.8L718.8,711.9z"/>
			</g>
			<g>
				<path class="st3" d="M757.4,734.2c-0.7,0.4-2,0.2-3-0.4l-28-16.2c-1-0.6-1.3-1.4-0.6-1.8l18.6-10.7c0.7-0.4,2-0.2,3,0.4l28,16.2
					c1,0.6,1.3,1.4,0.6,1.7L757.4,734.2z"/>
			</g>
			<g>
				<path class="st3" d="M795.9,756.5c-0.7,0.4-2,0.2-3-0.4l-28-16.2c-1-0.6-1.3-1.4-0.6-1.7l18.6-10.7c0.7-0.4,2-0.2,3,0.4l28,16.2
					c1,0.6,1.3,1.4,0.6,1.7L795.9,756.5z"/>
			</g>
			<g>
				<path class="st3" d="M580.8,602.8c-0.7,0.4-2,0.2-3.1-0.4l-28-16.2c-1-0.6-1.3-1.4-0.6-1.8l18.6-10.7c0.7-0.4,2-0.2,3,0.4
					l28,16.2c1,0.6,1.3,1.4,0.6,1.8L580.8,602.8z"/>
			</g>
			<g>
				<path class="st3" d="M619.4,625.1c-0.7,0.4-2,0.2-3-0.3l-28-16.2c-1-0.6-1.3-1.4-0.6-1.8l18.6-10.7c0.7-0.4,2-0.2,3,0.4l28,16.2
					c1,0.6,1.3,1.4,0.6,1.7L619.4,625.1z"/>
			</g>
			<g>
				<path class="st3" d="M658,647.3c-0.7,0.4-2,0.2-3.1-0.4l-28-16.2c-1-0.6-1.3-1.4-0.6-1.8l18.6-10.7c0.7-0.4,2-0.2,3,0.4l28,16.2
					c1,0.6,1.3,1.4,0.6,1.8L658,647.3z"/>
			</g>
			<g>
				<path class="st3" d="M696.6,669.6c-0.7,0.4-2,0.2-3-0.3l-28-16.2c-1-0.6-1.3-1.4-0.6-1.8l18.6-10.7c0.7-0.4,2-0.2,3,0.4l28,16.2
					c1,0.6,1.3,1.4,0.6,1.7L696.6,669.6z"/>
			</g>
			<g>
				<path class="st3" d="M735.2,691.9c-0.7,0.4-2,0.2-3-0.3l-28-16.2c-1-0.6-1.3-1.4-0.6-1.8l18.6-10.7c0.7-0.4,2-0.2,3,0.4l28,16.2
					c1,0.6,1.3,1.4,0.6,1.7L735.2,691.9z"/>
			</g>
			<g>
				<path class="st3" d="M773.8,714.1c-0.7,0.4-2,0.2-3.1-0.4l-28-16.2c-1-0.6-1.3-1.4-0.6-1.8l18.6-10.7c0.7-0.4,2-0.2,3,0.4
					l28,16.2c1,0.6,1.3,1.4,0.6,1.8L773.8,714.1z"/>
			</g>
			<g>
				<path class="st3" d="M812.4,736.4c-0.7,0.4-2,0.2-3-0.3l-28-16.2c-1-0.6-1.3-1.4-0.6-1.8l18.6-10.7c0.7-0.4,2-0.2,3,0.4l28,16.2
					c1,0.6,1.3,1.4,0.6,1.7L812.4,736.4z"/>
			</g>
			<g>
				<path class="st3" d="M503.8,558.4c-0.7,0.4-2,0.2-3.1-0.4l-47.5-27.4c-1-0.6-1.3-1.4-0.6-1.8l18.6-10.7c0.7-0.4,2-0.2,3,0.4
					l47.5,27.4c1,0.6,1.3,1.4,0.6,1.8L503.8,558.4z"/>
			</g>
			<g>
				<path class="st3" d="M876.5,743.9c-0.7,0.4-2,0.2-3-0.4L826,716.1c-1-0.6-1.3-1.4-0.6-1.8l18.6-10.7c0.7-0.4,2.1-0.2,3,0.4
					l47.5,27.4c1,0.6,1.3,1.4,0.6,1.8L876.5,743.9z"/>
			</g>
			<g>
				<path class="st3" d="M487.4,578.4c-0.7,0.4-2,0.2-3-0.4l-56.6-32.7c-1-0.6-1.3-1.4-0.6-1.8l18.6-10.7c0.7-0.4,2-0.2,3,0.4
					l56.6,32.7c1,0.6,1.3,1.4,0.6,1.8L487.4,578.4z"/>
			</g>
			<g>
				<path class="st3" d="M442.9,582.3c-0.7,0.4-2,0.2-3-0.4l-37.8-21.8c-1-0.6-1.3-1.4-0.6-1.8l18.6-10.7c0.7-0.4,2-0.2,3.1,0.4
					l37.8,21.8c1,0.6,1.3,1.4,0.6,1.8L442.9,582.3z"/>
			</g>
			<g>
				<path class="st3" d="M548.5,554.6c-0.7,0.4-2,0.2-3.1-0.4l-28-16.2c-1-0.6-1.3-1.4-0.6-1.8l18.6-10.7c0.7-0.4,2-0.2,3.1,0.4
					l28,16.2c1,0.6,1.3,1.4,0.6,1.8L548.5,554.6z"/>
			</g>
			<g>
				<path class="st3" d="M586.9,576.8c-0.7,0.4-2,0.2-3.1-0.4l-28-16.2c-1-0.6-1.3-1.4-0.6-1.8l18.6-10.7c0.7-0.4,2-0.2,3,0.4
					l28,16.2c1,0.6,1.3,1.4,0.6,1.8L586.9,576.8z"/>
			</g>
			<g>
				<path class="st3" d="M625.5,599c-0.7,0.4-2,0.2-3-0.3l-28-16.2c-1-0.6-1.3-1.4-0.6-1.8l18.6-10.7c0.7-0.4,2-0.2,3,0.4l28,16.2
					c1,0.6,1.3,1.4,0.6,1.8L625.5,599z"/>
			</g>
			<g>
				<path class="st3" d="M664.1,621.3c-0.7,0.4-2,0.2-3-0.4l-28-16.2c-1-0.6-1.3-1.4-0.6-1.8l18.6-10.7c0.7-0.4,2-0.2,3.1,0.4
					l28,16.2c1,0.6,1.3,1.4,0.6,1.8L664.1,621.3z"/>
			</g>
			<g>
				<path class="st3" d="M702.7,643.6c-0.7,0.4-2,0.2-3-0.3l-28-16.2c-1-0.6-1.3-1.4-0.6-1.8l18.6-10.7c0.7-0.4,2-0.2,3.1,0.4
					l28,16.2c1,0.6,1.3,1.4,0.6,1.8L702.7,643.6z"/>
			</g>
			<g>
				<path class="st3" d="M741.3,665.8c-0.7,0.4-2,0.2-3-0.3l-28-16.2c-1-0.6-1.3-1.4-0.6-1.8l18.6-10.7c0.7-0.4,2-0.2,3,0.3l28,16.2
					c1,0.6,1.3,1.4,0.6,1.8L741.3,665.8z"/>
			</g>
			<g>
				<path class="st3" d="M779.9,688.1c-0.7,0.4-2,0.2-3-0.4l-28-16.2c-1-0.6-1.3-1.4-0.6-1.8l18.6-10.7c0.7-0.4,2-0.2,3.1,0.4
					l28,16.2c1,0.6,1.3,1.4,0.6,1.8L779.9,688.1z"/>
			</g>
			<g>
				<path class="st3" d="M818.4,710.4c-0.7,0.4-2,0.2-3-0.3l-28-16.2c-1-0.6-1.3-1.4-0.6-1.7l18.6-10.7c0.7-0.4,2-0.2,3,0.3l28,16.2
					c1,0.6,1.3,1.4,0.6,1.7L818.4,710.4z"/>
			</g>
			<g>
				<path class="st3" d="M840.9,730c-0.5-0.3-1-0.5-1.6-0.5c-0.6-0.1-1.1,0-1.4,0.2l-18.6,10.7c-0.3,0.2-0.5,0.5-0.3,0.8
					c0.1,0.3,0.5,0.7,0.9,0.9l7.3,4.2l-24.4,14.1c-0.3,0.2-0.4,0.5-0.3,0.8c0.1,0.3,0.5,0.7,0.9,0.9l18.9,10.9
					c0.5,0.3,1.1,0.5,1.7,0.5c0.6,0.1,1.1,0,1.4-0.2l44.1-25.5c0.3-0.2,0.4-0.5,0.3-0.8c-0.1-0.3-0.5-0.7-0.9-1L840.9,730z"/>
			</g>
			<g>
				<path class="st3" d="M437.9,573.3c0,0-0.2,0-0.3-0.1l-21.4-12.4c-0.1-0.1-0.2-0.1-0.1-0.2l1.4-0.8c0,0,0.2,0,0.3,0.1l21.4,12.4
					c0.1,0.1,0.2,0.1,0.1,0.2L437.9,573.3z"/>
			</g>
		</g>
		<path class="st3" d="M547.4,756.6L439,694c-5.8-3.4-5.5-8.7,0.8-11.8l36.2-18c6.3-3.1,16.2-2.9,22.1,0.4l108.4,62.6
			c5.8,3.4,5.5,8.7-0.8,11.8l-36.2,18C563.2,760.1,553.2,759.9,547.4,756.6z"/>
	</g>
	<g class="st6">
		<path d="M328.1,760.9l-94.3-55.2c-6-3.5-5.2-9.6,1.8-13.5l179.9-102.4c6.9-3.9,17.5-4.3,23.4-0.8l94.3,55.2
			c6,3.5,5.2,9.6-1.8,13.5L351.5,760.1C344.6,764,334.1,764.4,328.1,760.9z"/>
	</g>
	<path class="st7" d="M1170.7,533.6l-128.3-75.8c-5.3-3.1-12.2,1.1-14.2,8.7l0,0l-53,202.2c-1.4,5.5,0.3,11,4.1,13.2l128.3,75.8
		c5.3,3.1,12.2-1.1,14.2-8.7l52.9-202.1C1176.3,541.4,1174.6,535.9,1170.7,533.6z"/>
	<g>
		<path d="M1023.4,853.9l-41.5-24l-10.2-5.9l0,0l-8.2-4.7c-2.8-1.6-7.4-1.6-10.3,0.1l-115.6,67c-2.9,1.7-3,4.4-0.2,6l23.3,13.5
			l0.7,0.4l0,0l35.8,20.8c2.8,1.6,7.4,1.6,10.3-0.1l115.6-67C1026,858.2,1026.1,855.5,1023.4,853.9z"/>
		<g>
			<path class="st8" d="M1023.3,853.7l-115.6,67c-2.9,1.7-7.5,1.7-10.3,0.1l-59.8-34.7c-2.8-1.6-2.7-4.3,0.2-6l115.6-67
				c2.9-1.7,7.5-1.7,10.3-0.1l59.8,34.7C1026.3,849.3,1026.2,852,1023.3,853.7z"/>
			<polygon points="987.7,826.9 861.6,900 845.7,890.8 971.9,817.8 			"/>
			<polygon class="st5" points="1000.1,839.1 949.8,868.3 942.9,864.3 993.2,835.1 			"/>
		</g>
	</g>
	<g>
		<polygon class="st9" points="1047.6,503.5 1010.7,652.6 1103.1,708.5 1139.9,559.7 		"/>
		<path class="st5" d="M1088.6,568.4l-33.3-20.2c-1.4-0.9-2.3-2.4-2.2-3.7l0,0c0.2-2.1,2.6-3,4.8-1.6l33.3,20.2
			c1.4,0.9,2.3,2.4,2.2,3.7l0,0C1093.2,568.9,1090.8,569.8,1088.6,568.4z"/>
		<path class="st5" d="M1081.7,596.7l-33.3-20.2c-1.4-0.9-2.3-2.4-2.2-3.7l0,0c0.2-2.1,2.6-3,4.8-1.6l33.3,20.2
			c1.4,0.9,2.3,2.4,2.2,3.7v0C1086.3,597.2,1083.9,598,1081.7,596.7z"/>
		<path class="st5" d="M1074.7,624.9l-33.3-20.2c-1.4-0.9-2.3-2.4-2.2-3.7v0c0.2-2.1,2.6-3,4.8-1.6l33.3,20.2
			c1.4,0.9,2.3,2.4,2.2,3.7l0,0C1079.3,625.4,1076.9,626.2,1074.7,624.9z"/>
		<path class="st8" d="M1119.1,586.7l-8.4-5.1c-1.2-0.8-2-2.5-1.7-3.8l1.8-7.2c0.3-1.4,1.6-1.9,2.9-1.1l8.4,5.1
			c1.2,0.8,2,2.5,1.7,3.8l-1.8,7.2C1121.6,587,1120.3,587.5,1119.1,586.7z"/>
		<path class="st8" d="M1111.8,616l-8.4-5.1c-1.2-0.8-2-2.5-1.7-3.8l1.8-7.2c0.3-1.4,1.6-1.9,2.9-1.1l8.4,5.1c1.2,0.8,2,2.5,1.7,3.8
			l-1.8,7.2C1114.4,616.3,1113.1,616.8,1111.8,616z"/>
		<path class="st8" d="M1104.6,645.3l-8.4-5.1c-1.2-0.8-2-2.5-1.7-3.8l1.8-7.2c0.3-1.4,1.6-1.9,2.9-1.1l8.4,5.1
			c1.2,0.8,2,2.5,1.7,3.8l-1.8,7.2C1107.1,645.6,1105.9,646,1104.6,645.3z"/>
		<path class="st8" d="M1056,667.8l-48.6-29.4c-6.6-4-10.6-13.2-8.8-20.4l0.5-2.1c1.8-7.2,8.7-9.9,15.3-5.8l48.6,29.4
			c6.6,4,10.6,13.2,8.8,20.4l-0.5,2.1C1069.5,669.2,1062.6,671.8,1056,667.8z"/>
		<path class="st5" d="M1054.7,652l-42.2-25.5c-0.9-0.5-1.4-1.7-1.1-2.7l0,0c0.2-0.9,1.1-1.3,2-0.8l42.2,25.5
			c0.9,0.5,1.4,1.7,1.1,2.7l0,0C1056.5,652.2,1055.6,652.5,1054.7,652z"/>
	</g>
	<g>
		<path class="st10" d="M701,718.9l-31.3,5.9l-41,13.8l-45.3,25.5l-26.1,17c0,0-17.1,8.5-33.1,28.2c-6.1,7.5-22.6,38.2-25.9,44.4
			l41.1,66.3c0,0,12.2-1.5,34-11.3c21.8-9.9,48.2-26.6,55.9-31.4c7.7-4.8,19.6-7.7,29.9-7.6c10.2,0.1,26.6-2.5,26.6-2.5l38-6.6
			c0,0,16.9-3,16.2-14.3c-0.7-11.3-28.7-6.2-28.7-6.2l-42.2,3.6l-19-3.3l-23.6-40.3l3-31.7l24.3-14.2c0,0,23.2-11,24.8-10.9
			c1.6,0.1,25.3-7,27.4-14.4C707.8,722.2,704.3,718.3,701,718.9z"/>
		<path class="st11" d="M734.4,746.9l-29.7-3.1l-37.3,4.1l-52.8,23.7l8.3,36.2l51.1-27.3l30.5-9.7c0,0,34.6-3.5,34.6-13.4
			C739.1,747.7,734.4,746.9,734.4,746.9z"/>
		<path class="st11" d="M747.3,775l-34.7,3.8l-37.6,11.6L623.8,803l21.1,34.3l44.8-19.1l32.3-13.7c0,0,34.4-10.2,32.4-20.3
			C752.3,774.2,747.3,775,747.3,775z"/>
		<path class="st11" d="M565.8,794.1l-1.6-42.4c0,0,27.8-38.5,4.8-45.9c0,0-9.4,7.8-14.2,13.9c-5.1,6.6-11.2,12.1-13.7,22.2
			c-2.5,10-26.2,83.4-26.2,83.4l41.8-7.3L565.8,794.1z"/>
		<polygon class="st10" points="528.8,835.5 359.3,928 502.7,954.8 557.5,912 		"/>
		<path class="st12" d="M452,874L354,934.1l143.5,26.8l33.7-21.4C522.3,897.5,502.8,884.7,452,874z"/>
		<path class="st13" d="M573.1,770.9c-18.8,13.1-26.2,22.3-41.9,40.7"/>
		<polyline class="st13" points="667.4,747.9 634.7,763.9 613.4,776.3 		"/>
		<path class="st13" d="M719.1,851.6L719.1,851.6c-0.5-2.1,0.9-4.3,3-4.8l7.5-1.7c2.1-0.5,4.3,0.9,4.8,3v0c0.5,2.1-0.9,4.3-3,4.8
			l-7.5,1.7C721.7,855.1,719.6,853.7,719.1,851.6z"/>
		<path class="st13" d="M734.7,782.1L734.7,782.1c-0.5-2.1,0.9-4.3,3-4.8l7.5-1.7c2.1-0.5,4.3,0.9,4.8,3v0c0.5,2.1-0.9,4.3-3,4.8
			l-7.5,1.7C737.3,785.6,735.2,784.2,734.7,782.1z"/>
		<path class="st13" d="M717,749.7L717,749.7c0.1-1.9,1.8-3.3,3.6-3.2l8.7,0.5c1.9,0.1,3.3,1.8,3.2,3.6l0,0
			c-0.1,1.9-1.8,3.3-3.6,3.2l-8.7-0.5C718.3,753.2,716.9,751.6,717,749.7z"/>
		<path class="st13" d="M703.1,720.6c0.3,1.9-0.9,3.7-2.8,4l-8.6,1.6c-1.9,0.3-3.7-0.9-4-2.8v0"/>
	</g>
	<path class="st14" d="M252.3,1000c0,0,134.7-106.7,141.4-107.8c6.7-1.1,49.3-11.5,80.6,10.9c14.2,10.2,49.8,43.1,51.9,51.7
		c0.8,3.4-4.5,9.2-11.3,15c-10.4,8.9-37.9,30.1-37.9,30.1H252.3z"/>
	<path class="st11" d="M158.9,644.3l95-75.7l21.7-13.1c12.1-4.4,21.7-6.1,34.6-5.6l78.6-3.2c0,0-42.4,46.7-87.1,97.9
		c-2.6,3-5.2,5.7-7.8,8l38.5,8.7L266.8,702c-9.3,7-37.9,12.9-49.6,13.5l-9.2,0.8c-51.8,19.6-92,33.6-141.4,62.7l-0.4-98.5
		L158.9,644.3z"/>
	<g>
		<g>
			<path class="st15" d="M541.7,604.1l0-0.1c0,0,0,0,0-0.1l-0.3-9l-7,1.1l-96.5-56.5c-6.3-3.7-17.4-3.3-24.7,0.9L227.3,646.3
				l-10.6,1.7l0.3,8.7l0,0c0,2.3,1.3,4.6,4.2,6.2l99.6,58.3c6.3,3.7,17.4,3.3,24.7-0.9l190-108.1C539.6,609.9,541.7,607,541.7,604.1
				L541.7,604.1z"/>
			<path d="M320.5,712.6l-99.6-58.3c-6.3-3.7-5.5-10.1,1.9-14.3l190-108.1c7.3-4.2,18.4-4.6,24.7-0.9l99.6,58.3
				c6.3,3.7,5.5,10.1-1.9,14.3l-190,108.1C337.9,715.9,326.8,716.3,320.5,712.6z"/>
			<polygon points="346,711.2 221.9,640.5 414.1,531.1 536.6,602.7 			"/>
			<polygon class="st16" points="283.8,614.7 417.1,538.9 502,588.5 			"/>
		</g>
	</g>
	<path class="st13" d="M206.8,710c0,0-10.5-8.1-8-15.5"/>
	<path class="st11" d="M223.3,621.4c1.4,0.2,21.6-21,45.7-33.3c13.9-7.1,46.6-14.2,46.6-14.2l42.7,6.3c4.7,0.7,8.5,7.1,6.9,11.7
		c-2.6,7.7-9.8,14.8-27.4,12c-3.4-0.5-15.7-2.4-24.6-1.8c-7.6,0.6-16.6,5.8-22.3,8.4c-3.4,1.5-16.8,13.5-37.9,27.5
		c-38.6,25.7-56,2.7-56,2.7L223.3,621.4z"/>
	<path class="st13" d="M340.3,586.8l13.5,0.8c2.2,0.1,4.1-1.6,4.2-3.8l0,0c0.1-2.2-1.6-4.1-3.8-4.2l-13.5-0.8
		c-2.2-0.1-4.1,1.6-4.2,3.8l0,0C336.4,584.8,338.1,586.7,340.3,586.8z"/>
	<path class="st13" d="M317.6,590c0,0,0.5-5.3-1-6.7"/>
	<path class="st13" d="M280.3,607c1.9,1.6,3.2,4.3,3.3,6.6"/>
	<path class="st13" d="M261.6,587.2c0,0,33.8-14.7,44.4-14.7"/>
	<path class="st5" d="M158.9,739L59,793.2l-4.7-111.9l77.2-34.8C151.9,668.5,159.6,700.5,158.9,739z"/>
	<path class="st14" d="M95.9,653.7c0,0,20.9,30.1,20.9,48.3c0,18.2,0.5,52.2,9.8,67.2C135.9,784.2,0,849.9,0,849.9V688.3L95.9,653.7
		z"/>
	<path class="st5" d="M1000.7,436.9l-127.1-73.6c-7-4-14.7,1.2-17.2,11.6l-12.7,52.6c0,0.1,0,0.1,0,0.2l-22.6,93.5
		c-2.4,9.9,0.8,18.7,8.4,23.1l116.7,67.6c10.7,6.2,26.4,1.2,29.8-12.6l14.5-57.3c0,0,0-0.1,0-0.1l19.4-80.1
		C1012.4,451.1,1008.9,441.6,1000.7,436.9z"/>
	<g>
		<path class="st7" d="M971.4,519.3c8.1-32.3-6.7-74.5-33-94.1c-12.1-9-24.5-11.7-35.2-8.9l0,0l-0.1,0c-1.4,0.4-2.8,0.9-4.2,1.5
			l-25.5,9.9l12.3,0.4c-4.1,5.2-7.4,11.9-9.4,19.9c-8.1,32.3,6.7,74.5,33,94.1c5.4,4,10.8,6.8,16.2,8.4l1.8,7.1l17.8-6.7
			c1-0.3,1.9-0.6,2.9-1l0.3-0.1l0,0C958.9,545.4,967.5,534.9,971.4,519.3z"/>
		
			<ellipse transform="matrix(0.9476 -0.3195 0.3195 0.9476 -110.155 313.4968)" class="st8" cx="900.5" cy="492.5" rx="46.9" ry="70.5"/>
		<g>
			<path class="st5" d="M874.4,485.7c4,9.9,8.1,19.8,12.1,29.7c0.6,1.4,1.1,2.8,1.7,4.2c0.6,1.4,1.4,2.5,2.9,2.9
				c1.3,0.4,3.1,0,4-1.1c3.2-3.8,6.5-7.6,9.7-11.4c5.2-6.1,10.4-12.2,15.5-18.2c1.2-1.4,2.4-2.8,3.6-4.2c1.4-1.6,1.7-4.2,0-5.8
				c-1.5-1.4-4.3-1.8-5.8,0c-3.2,3.8-6.5,7.6-9.7,11.4c-5.2,6.1-10.4,12.2-15.5,18.2c-1.2,1.4-2.4,2.8-3.6,4.2
				c2.3,0.6,4.6,1.2,6.9,1.8c-4-9.9-8.1-19.8-12.1-29.7c-0.6-1.4-1.1-2.8-1.7-4.2c-0.8-2-2.8-3.6-5.1-2.9
				C875.4,481.2,873.5,483.6,874.4,485.7L874.4,485.7z"/>
		</g>
	</g>
	<path class="st5" d="M766.7,569l-167.3-96.5c-10.9-6.3-17.3-20.3-14.4-31.4l52-198.2c2.9-11.1,14.1-15,24.9-8.7l167.3,96.5
		c10.9,6.3,17.3,20.3,14.4,31.4l-52,198.2C788.7,571.3,777.5,575.2,766.7,569z"/>
	<g>
		<path class="st3" d="M764.4,456.3l-116.1-66.6c-5.8-3.3-9.1-12.3-7.3-19.9l3.4-15c1.7-7.6,7.9-11.2,13.6-7.9l116.1,66.6
			c5.8,3.3,9.1,12.3,7.3,19.9l-3.4,15C776.3,456.1,770.2,459.6,764.4,456.3z"/>
		<path class="st3" d="M780.9,397.8l-116.1-66.6c-5.8-3.3-9.1-12.3-7.3-19.9l3.4-15c1.7-7.6,7.9-11.2,13.6-7.9L790.6,355
			c5.8,3.3,9.1,12.3,7.3,19.9l-3.4,15C792.8,397.5,786.7,401.1,780.9,397.8z"/>
		<g>
			<g>
				<g>
					<polygon class="st5" points="674.7,382.9 671.4,381.2 674.3,379.9 672.6,376.1 669.7,377.4 670.5,373.8 667.3,372 666.4,375.6 
						664.7,371.8 661.8,373.1 663.5,376.8 660.3,375.1 659.4,378.6 662.7,380.4 659.8,381.6 661.5,385.4 664.4,384.2 663.6,387.7 
						666.9,389.5 667.7,385.9 669.4,389.7 672.3,388.5 670.6,384.7 673.9,386.5 					"/>
				</g>
			</g>
			<g>
				<g>
					<polygon class="st5" points="696.3,394.7 693,392.9 695.9,391.7 694.2,387.9 691.2,389.1 692.1,385.6 688.8,383.8 688,387.4 
						686.2,383.6 683.3,384.8 685.1,388.6 681.8,386.8 681,390.4 684.2,392.1 681.3,393.4 683,397.2 686,395.9 685.1,399.5 
						688.4,401.3 689.2,397.7 691,401.5 693.9,400.2 692.1,396.5 695.4,398.2 					"/>
				</g>
			</g>
			<g>
				<g>
					<polygon class="st5" points="717.8,406.5 714.5,404.7 717.4,403.4 715.7,399.6 712.8,400.9 713.6,397.3 710.3,395.5 
						709.5,399.1 707.8,395.3 704.9,396.6 706.6,400.4 703.3,398.6 702.5,402.1 705.8,403.9 702.9,405.2 704.6,408.9 707.5,407.7 
						706.7,411.2 709.9,413 710.8,409.5 712.5,413.2 715.4,412 713.7,408.2 717,410 					"/>
				</g>
			</g>
			<g>
				<g>
					<polygon class="st5" points="739.3,418.2 736,416.4 738.9,415.2 737.2,411.4 734.3,412.7 735.1,409.1 731.9,407.3 731,410.9 
						729.3,407.1 726.4,408.3 728.1,412.1 724.9,410.3 724,413.9 727.3,415.7 724.4,416.9 726.1,420.7 729,419.4 728.2,423 
						731.5,424.8 732.3,421.2 734,425 736.9,423.8 735.2,420 738.5,421.8 					"/>
				</g>
			</g>
			<g>
				<g>
					<polygon class="st5" points="760.8,430 757.6,428.2 760.5,426.9 758.8,423.2 755.8,424.4 756.7,420.8 753.4,419.1 752.6,422.6 
						750.8,418.8 747.9,420.1 749.7,423.9 746.4,422.1 745.6,425.6 748.8,427.4 745.9,428.7 747.6,432.4 750.6,431.2 749.7,434.7 
						753,436.5 753.8,433 755.6,436.8 758.5,435.5 756.7,431.7 760,433.5 					"/>
				</g>
			</g>
		</g>
		<g>
			<path class="st5" d="M767.7,375.1l-90-52.4c-2.8-1.6-4.7-5.5-4.2-8.7l0,0c0.5-3.2,3.1-4.4,5.9-2.8l90,52.4
				c2.8,1.6,4.7,5.5,4.2,8.7l0,0C773.1,375.4,770.5,376.7,767.7,375.1z"/>
		</g>
		<path class="st8" d="M744.1,519.9l-116.1-66.6c-5.8-3.3-9.1-12.3-7.3-19.9l3.4-15c1.7-7.6,7.9-11.2,13.6-7.9l116.1,66.6
			c5.8,3.3,9.1,12.3,7.3,19.9l-3.4,15C756,519.7,749.9,523.2,744.1,519.9z"/>
		<g>
			<path class="st5" d="M730.8,497.2l-90-52.4c-2.8-1.6-4.7-5.5-4.2-8.7l0,0c0.5-3.2,3.1-4.4,5.9-2.8l90,52.4
				c2.8,1.6,4.7,5.5,4.2,8.7l0,0C736.3,497.6,733.6,498.8,730.8,497.2z"/>
		</g>
	</g>
	<g>
		<g>
			<polygon class="st3" points="442.9,579 357,625.1 374.7,635.9 435.3,602.9 442.1,591.2 			"/>
			<g>
				<path class="st3" d="M394.3,614.6c-13.1-8-50-3.1-63.5,4.2c0,0,0.1,6.6,0,11.7c-0.1,5,2,9.6,8.5,13.6c13.1,8,34.6,8.5,48.1,1.2
					c6.1-3.3,9.5-7.7,10.2-12.3C398.5,627.6,401.5,619,394.3,614.6z"/>
			</g>
			<g>
				<g>
					<polygon class="st5" points="437.2,572 356.1,616.1 373.7,626.9 434.3,594 442.9,579 					"/>
				</g>
			</g>
			<g>
				<g>
					<path class="st5" d="M389.3,608.3c-13.1-8-34.6-8.5-48.1-1.2c-13.5,7.3-13.8,19.8-0.7,27.8c13.1,8,34.6,8.5,48.1,1.2
						C402,628.7,402.4,616.3,389.3,608.3z"/>
				</g>
			</g>
			<g>
				<path class="st17" d="M381.2,610.9c-9.3-5.7-24.6-6.1-34.2-0.9c-9.6,5.2-9.8,14-0.5,19.7c9.3,5.7,24.6,6.1,34.2,0.9
					C390.2,625.4,390.4,616.5,381.2,610.9z"/>
			</g>
			<path class="st15" d="M358.8,628.3c-0.1,3.1-4.5,5.5-9.8,5.3c-5.4-0.1-9.6-2.7-9.6-5.8c0.1-3.1,4.5-5.5,9.8-5.3
				C354.6,622.6,358.9,625.2,358.8,628.3z"/>
			<path d="M357.6,630.9c-1.7,1.7-4.9,2.8-8.6,2.7c-3.8-0.1-7-1.4-8.6-3.3C344.2,626.7,355.5,627.9,357.6,630.9z"/>
			<g>
				
					<rect x="371.8" y="590.8" transform="matrix(0.8739 -0.4862 0.4862 0.8739 -236.2071 272.8027)" class="st17" width="71.7" height="1.6"/>
			</g>
			<g>
				
					<rect x="362.2" y="596.2" transform="matrix(0.8677 -0.4971 0.4971 0.8677 -243.2772 279.869)" class="st17" width="83.9" height="1.6"/>
			</g>
			<g>
				
					<rect x="373.8" y="599.5" transform="matrix(0.8686 -0.4955 0.4955 0.8686 -243.6119 281.8686)" class="st17" width="71.9" height="1.6"/>
			</g>
		</g>
		<path class="st18" d="M344.1,649.4c-3.5,5.5-9.6,9.1-16.6,9.1c-10.8,0-19.6-8.8-19.6-19.6c0-10.8,8.8-19.6,19.6-19.6
			c8.1,0,15,4.9,18,11.9"/>
		<path class="st8" d="M319.7,653.6c0.4-1.1-1-2-1.9-1.2c-5.8,5-12.6,13.7,4.4,18c23.3,5.9,42.1,0.2,48.3,10.5
			c0.3,0.5,1.2,0.4,1.3-0.3l1.8-9.8c0.1-0.4,0.5-0.7,0.9-0.6c3,0.7,13.7,3.3,12.6,2.7c-1.2-0.8-5.7-13.2-30.9-11.7
			C334.4,662.6,316.1,663.1,319.7,653.6z"/>
	</g>
	<path class="st7" d="M760.8,315l-58.9-33.6c-10.3-5.9-11.4-13.5-2.4-16.9l0,0c9-3.4,24.8-1.4,35.1,4.5l58.9,33.6
		c10.3,5.9,11.4,13.5,2.4,16.9h0C786.9,322.9,771.1,320.9,760.8,315z"/>
	<polygon class="st7" points="712,198.5 693.7,269 801.8,314 820.1,243.1 	"/>
	<path class="st8" d="M792.6,231.1L774.1,303l0,0c-0.7,2.9-3.3,5.5-7.9,7.2l0,0c-2.6,1-5.6,1.6-8.9,2l3.9,2.2
		c10.3,5.9,26.1,7.9,35.1,4.5h0c3.4-1.3,5.4-3.2,5.9-5.4l0,0l17.7-69.7L792.6,231.1z"/>
	<path class="st7" d="M747.8,250.7L747.8,250.7c3.3,2.3,5.1,7.2,4.1,10.7l-5.7,20.3c-1,3.6-4.5,4.6-7.8,2.2v0
		c-3.3-2.3-5.1-7.2-4.1-10.7l5.7-20.3C741,249.3,744.5,248.3,747.8,250.7z"/>
	
		<ellipse transform="matrix(0.8473 -0.5311 0.5311 0.8473 -21.7714 435.4271)" class="st7" cx="746.4" cy="255.6" rx="10.7" ry="13.4"/>
	<path class="st8" d="M741.6,284.7c-3.3-2.3-5.1-7.2-4.1-10.7l3.3-11.6c-2.1-3.2-3.1-7.2-2.5-10.8c0.9-5.2,4.9-8.1,9.7-7.8
		c-6.2-2.5-12,0.6-13.2,7c-0.7,3.6,0.3,7.6,2.5,10.8l-3.3,11.6c-1,3.6,0.8,8.4,4.1,10.7c1.4,1,2.8,1.4,4.1,1.2c0,0-0.1-0.1-0.1-0.1
		C741.9,284.9,741.7,284.8,741.6,284.7z"/>
	<path class="st8" d="M779.1,244.1l-58.9-33.6c-10.3-5.9-11.4-13.5-2.4-16.9h0c9-3.4,24.8-1.4,35.1,4.5l58.9,33.6
		c10.3,5.9,11.4,13.5,2.4,16.9h0C805.2,252.1,789.4,250,779.1,244.1z"/>
	<path class="st7" d="M794.7,233.6c-0.6,2.2-5.1,2.9-10.1,1.5c-5-1.4-8.6-4.3-8-6.6c0.6-2.2,5.1-2.9,10.1-1.5
		C791.7,228.5,795.3,231.4,794.7,233.6z"/>
	
		<ellipse transform="matrix(0.2754 -0.9613 0.9613 0.2754 340.2812 869.2683)" class="st7" cx="746.8" cy="208.9" rx="4.2" ry="9.4"/>
	<path class="st7" d="M782.2,158.5c0,0-33.8-18.2-44.5,47.9l18.1,5.1c0,0,4.1-37.4,18.3-32.5c0,0,2.2,0.6,3.3,1.5
		c3.5,3.1,10.9,13.6-0.8,48.4l18.1,5.1C794.7,234,818.5,173.5,782.2,158.5z"/>
	<g>
		<path class="st4" d="M961.6,378.7L961.6,378.7c-38.8-25.1-55.2-84.3-43.5-131.9l5.5-102.3l21.9-9.2l86.2,5.5l68,79.9l-27.4,111.5
			C1063.8,371.4,1007.2,396.1,961.6,378.7z"/>
		<path class="st5" d="M948.5,390.2L948.5,390.2c-38.7-41.9-64-86.7-52.4-134.2l27.4-111.5l86.2,5.5l68,79.9l-27.4,111.5
			C1047.4,357.6,1005.2,390,948.5,390.2z"/>
		<path class="st8" d="M952.5,371.9c-24-37-52.3-74.8-43-112.9l21.9-89.2l69,4.4l54.4,63.9l-24.9,54.6
			C1020.5,330.8,952.5,371.9,952.5,371.9z"/>
		<path class="st7" d="M952.5,371.9L952.5,371.9l47.9-197.6l54.4,63.9l-21.9,89.2C1025.2,345.2,996.6,366,952.5,371.9z"/>
	</g>
	<g class="st20">
		<path d="M578.8,520L430,423.5c-10.9-6.3-17.3-20.3-14.4-31.4L566,280.3l12.8-43.5l81.1,44.9c10.9,6.3,17.3,20.3,14.4,31.4
			L622.5,510L578.8,520z"/>
	</g>
	<path class="st21" d="M560.8,520l-167.3-96.5c-10.9-6.3-17.3-20.3-14.4-31.4l52-198.2c2.9-11.1,14.1-15,24.9-8.7l167.3,96.5
		c10.9,6.3,17.3,20.3,14.4,31.4l-52,198.2C582.8,522.3,571.6,526.3,560.8,520z"/>
	<g>
		
			<ellipse transform="matrix(0.8716 -0.4902 0.4902 0.8716 -109.5104 292.6658)" class="st7" cx="503.9" cy="355.4" rx="69.7" ry="92.4"/>
		<g>
			<path class="st5" d="M481.7,370.1c-0.2-0.3-0.1-0.4,0.3-0.5c1.3-0.3,2.4-1.1,3.7-1.5c0.2-0.1,0.6-0.1,0.8-0.2
				c0.1-0.4,0.2-1,0.3-1.5c0.7-3.3,1.4-6.5,2.1-9.8c0.1-0.7,1-0.3,0.9,0.4c-0.1,0.2-0.1,0.5-0.2,0.7l0.9-3.4l25.5,11.1
				c-0.3,0.7-0.5,1.4-0.7,2.3c0.3-0.2,0.8,0.2,0.7,0.7c-0.7,3.2-1.3,6.4-2,9.6c-0.1,0.3-0.2,0.7-0.3,1.1c0.1-0.2,0.6,1.1,0.7,1.4
				c0.8,1.5,2.8,3.9,3.6,5.4c0.3,0.7,3.8,7.2,3.4,6.6c-0.4-0.7,1.9,8.8-1.8,2.1c0.8,1.9,10.1,13.3,10.1,13.3l-34.5-10.6l-23.4-22.5
				L481.7,370.1z"/>
			<g>
				<path class="st5" d="M487.8,317.7c0.5,0.3,0.3,1.5-0.2,1.1c-4.4-2.7-4.9,8.1-5.1,11.3c0.2-2.9,0.3-8.2,1.4-10.7
					c0.4-0.9,1.7-1.5,2.5-1.9c0.7-0.5,1,1.4,1.8,2.1l-1.1,22.1c-0.1,0-0.1,0-0.2,0c0,0.4-0.2,0.8-0.5,0.7c-5.1-1.6-4.9-9.2-4.6-14.2
					C482,324.5,483.1,314.8,487.8,317.7z"/>
				<path class="st5" d="M522,357.9c4.8,2.9,7.4-3.6,8.9-8.1c1.1-3.4,3.6-12.4-1.3-13.9c-0.6-0.2-0.8,1-0.2,1.1c0,0,0.1,0,0.1,0
					c-0.1,0-0.2-0.1-0.4-0.1l-7.1,19.4c0.4,0.3,0.7,0.5,1.1,0.7c-0.3-0.1-0.6-0.2-1-0.4C521.6,356.5,521.4,357.6,522,357.9z"/>
			</g>
			<path class="st5" d="M494.2,300.9c3.7-5.8,9.1-7.4,15-5.9c1.7,0.5,3.3,1.3,4.9,2c0,0,0,0,0,0c0.1,0,0.2,0.1,0.2,0.1c0,0,0,0,0,0
				c4.9,2.2,9.6,4.7,12.8,10.6c3,5.6,3.5,12.5,3,18.7c-0.6,7.6-2.4,14.8-4.4,21.7c-1.5,5.2-2.5,11.2-5.2,15.4
				c-3.5,5.6-8.5,6.7-14,6.9c-5.6,0.2-10.3-3.8-14.7-8.6c-4.8-5.5-6.7-13.4-6-21c0.6-6.2,1.1-12.5,1.9-18.7
				C488.9,314.6,490.5,306.7,494.2,300.9z"/>
			<g>
				<g>
					<path class="st8" d="M491.1,325.5c-0.3-0.8-0.2-1.9,0.7-2.5c0.2-0.1,0.4-0.3,0.7-0.4c1.5-1,3.2-2.1,5.2-1.3
						c2.2,0.9,4.1,2.1,5.9,3.5c0.9,0.8,1.1,2.3,0.7,3.4c-0.4,1-1.2,1.3-1.9,0.7l0,0c-0.8-0.6-1.7-1.1-2.6-1.5
						c-0.7-0.4-1.5-0.8-2.2-1.3c-1.4-0.9-2.7-0.9-4.3,0.1c-0.4,0.3-0.9,0.3-1.2,0.1C491.5,326.3,491.2,325.9,491.1,325.5z
						 M502.9,327.1L502.9,327.1L502.9,327.1z"/>
				</g>
			</g>
			<g>
				<g>
					<path class="st8" d="M522.1,341c-1.1-2.2-2.1-3.3-3.6-3.6c-0.8-0.2-1.6-0.4-2.3-0.7c-0.9-0.3-1.8-0.6-2.7-0.8l0,0
						c-0.8-0.1-1.4-1-1.4-2.2c0-1.2,0.7-2.4,1.7-2.3c2,0.2,4,0.8,6.2,1.7c1.9,0.9,3,3.2,3.9,5.3c0.1,0.3,0.3,0.6,0.4,0.9
						c0.4,0.7,0.4,1.5,0.2,2.1c-0.2,0.5-0.6,0.8-1,0.8c-0.1,0-0.3,0-0.4-0.1C522.7,341.9,522.4,341.5,522.1,341z M523.6,340.1
						L523.6,340.1L523.6,340.1z M513.5,333.7L513.5,333.7L513.5,333.7L513.5,333.7z"/>
				</g>
			</g>
			<path class="st8" d="M513,312L513,312c-5-2.4-17.7,2.7-22.6,0.1c-1.7-0.9,4.4-9.4,2.9-10.9c-0.7-0.6-1.3-1.5-1.5-2.6
				c-0.2-1.5,0.4-2.9,1.1-4.1c4-6.5,10.2-9.3,16.1-8.6c5.9,0.7,11.5,4.5,16.6,9.4c3.7,3.6,8.3,9.7,7.2,17.1
				c-0.9,5.7-7.5,3.7-10.2,3.1C519.2,314.9,516.1,313.4,513,312z"/>
			<path class="st8" d="M526.9,316.7L526.9,316.7c0-0.3,0.1-0.6,0.3-0.9c0.2-0.2,0.4-0.3,0.7-0.4c0.8-0.2,1.6-0.5,2.4-0.7
				c0.4-0.1,0.9-0.3,1.4-0.1c0.8,0.3,1.3,1.5,1.6,2.6c0.7,3.1,0.6,6.3,0,9.3c-0.6,3-1.6,5.7-2.8,8.3c-0.8,1.9-1.7,4.8-2.9,6.1
				c-0.9-0.9-0.8-4.1-1-5.4c-0.2-2.1-0.3-4.3-0.4-6.4C526.2,324.9,526.4,320.7,526.9,316.7z"/>
			<path class="st8" d="M451.4,370.9c0.3-0.2,0.6-0.4,0.9-0.5l0,0c2.8-1.2,5.9-1,8.6-0.9c2.8,0.2,6.6,0.1,10.2,0
				c3.6-0.1,7.4-0.2,10.3,0l0.5,0l0.1,0.6c-2.4,8.3,3.2,18,10.6,21.4c7.8,3.7,23.3,5.7,24.6-6.3l0.3-0.5l0.4,0.4
				c2.5,2.2,5.1,5.1,7.6,8c2.5,2.8,5,5.7,7.5,7.8c2.4,2.1,5.1,4.5,7.1,7.7c1.2,2,2.3,6,3.2,11c-10.2,6.1-22.3,8.3-35.4,5.3
				C484,419.5,463,398.2,451.4,370.9z"/>
			<path class="st8" d="M499.3,364.6c0,0-6.9-1.5-10.7-7.7l-1,4.7C487.7,361.6,497.4,368.4,499.3,364.6z"/>
			<path class="st8" d="M495.7,301.2L495.7,301.2c0.1-0.3,0.1-0.6,0.1-0.9c-0.1-0.3-0.3-0.6-0.4-0.9c-0.6-0.8-1.2-1.7-1.8-2.5
				c-0.3-0.5-0.7-1-1.1-1.2c-0.8-0.4-1.6,0.2-2.2,1c-1.7,2-2.7,4.9-3.2,7.9c-0.5,3-0.5,6.1-0.5,9.3c0,2.2-0.2,5.4,0.4,7.5
				c1,0,2.1-2.8,2.7-3.8c0.9-1.6,1.7-3.4,2.5-5.1C493.6,308.8,494.8,305.1,495.7,301.2z"/>
		</g>
	</g>
	<g>
		<path class="st8" d="M843.6,678.9l-71.4-43.7c-22.2-13.6-34.7-45.8-27.7-71.5l0,0c7-25.7,30.9-35.6,53.1-22l71.4,43.7
			c22.2,13.6,34.7,45.8,27.7,71.5l0,0C889.8,682.6,865.9,692.5,843.6,678.9z"/>
		<polygon class="st8" points="760.4,589.8 738.3,654 785.1,642.6 		"/>
	</g>
	<g>
		<g>
			<polygon class="st5" points="787.7,590.9 783.7,588.7 787.3,587.1 785.1,582.5 781.6,584 782.6,579.6 778.6,577.5 777.5,581.8 
				775.4,577.2 771.8,578.7 774,583.4 769.9,581.2 768.9,585.5 773,587.7 769.4,589.3 771.5,593.9 775.1,592.4 774,596.7 
				778.1,598.9 779.1,594.5 781.2,599.2 784.8,597.7 782.6,593 786.7,595.2 			"/>
		</g>
	</g>
	<g>
		<g>
			<polygon class="st5" points="814.2,605.3 810.1,603.1 813.7,601.6 811.6,596.9 808,598.5 809,594.1 805,591.9 804,596.3 
				801.9,591.6 798.3,593.2 800.4,597.8 796.4,595.6 795.4,600 799.4,602.2 795.8,603.7 797.9,608.3 801.5,606.8 800.5,611.2 
				804.5,613.4 805.5,609 807.7,613.7 811.2,612.1 809.1,607.5 813.2,609.7 			"/>
		</g>
	</g>
	<g>
		<g>
			<polygon class="st5" points="840.6,619.8 836.6,617.6 840.2,616 838.1,611.4 834.5,612.9 835.5,608.5 831.5,606.3 830.5,610.7 
				828.3,606.1 824.8,607.6 826.9,612.3 822.9,610.1 821.8,614.4 825.9,616.6 822.3,618.2 824.4,622.8 828,621.2 827,625.6 
				831,627.8 832,623.4 834.1,628.1 837.7,626.6 835.6,621.9 839.6,624.1 			"/>
		</g>
	</g>
	<g>
		<g>
			<polygon class="st5" points="867.1,634.2 863.1,632 866.6,630.5 864.5,625.8 860.9,627.4 862,623 858,620.8 856.9,625.2 
				854.8,620.5 851.2,622.1 853.4,626.7 849.3,624.5 848.3,628.9 852.3,631.1 848.8,632.6 850.9,637.2 854.5,635.7 853.4,640.1 
				857.4,642.3 858.5,637.9 860.6,642.5 864.2,641 862,636.4 866.1,638.6 			"/>
		</g>
	</g>
	<path d="M1144.3,471.2c0,5.4-4.6,8.8-10.2,7.5c-5.6-1.3-10.2-6.7-10.2-12.1c0-5.4,4.6-8.8,10.2-7.5S1144.3,465.8,1144.3,471.2z"/>
	<ellipse transform="matrix(0.6824 -0.7309 0.7309 0.6824 224.9604 901.6174)" cx="1150.1" cy="191.9" rx="8.9" ry="11.3"/>
	<path d="M247.9,482.3c0,5.4-4.6,8.8-10.2,7.5c-5.6-1.3-10.2-6.7-10.2-12.1s4.6-8.8,10.2-7.5C243.4,471.4,247.9,476.9,247.9,482.3z"
		/>
	<polygon class="st5" points="963.1,271.5 957.3,296.6 982.5,308.3 989.3,283.4 	"/>
	<polygon class="st5" points="943.9,288.5 963.3,328.2 995.3,311.1 	"/>
	<path class="st22" d="M1012.4,252.5c-1.6-0.8-3.2-1.2-4.8-1.5c-1.8-10.7-8.1-20.4-16.9-24.6c-8.8-4.3-17.9-2-23.8,4.9
		c-1.3-1.1-2.6-2-4.1-2.7c-9.5-4.6-19.4,1-22.1,12.4c-2.7,11.3,2.7,24.2,12.1,28.9l0,0c0,0,24.9,12,24.9,12l25,12.1
		c9.5,4.6,19.4-1,22.1-12.4C1027.5,270.1,1021.9,257.1,1012.4,252.5z"/>
	<path class="st5" d="M988.2,225.3c-8-2.7-15.9-0.3-21.3,5.9c-1.3-1.1-2.6-2-4.1-2.7c-9.5-4.6-19.4,1-22.1,12.4
		c-2.7,11.3,2.7,24.2,12.1,28.9l0,0l22.1,10.6L988.2,225.3z"/>
</g>
</svg>
